<svg width="256" height="64" version="1.1" viewBox="0 0 256 64" xmlns="http://www.w3.org/2000/svg">
 <g transform="translate(10,-2)" fill="#f00">
  <path d="m10 54s16.622-4.0048 22.5-4c5.8057 0.0048 22.5 4 22.5 4l1 4h-47z" stroke-linecap="square" stroke-width="5.6693"/>
  <path d="m29 53c0.63767-22.452 0.17861-32.398-2.9479-38.219-3.1265-5.8206-10.702-6.4082-16.849-1.697-3.2875 2.5199-7.0992 6.4012-6.4382 13.602 0.7673 8.3591 8.6047 9.5921 14.635 8.2577l-2.222-2.1732s-4.3473 0.36259-6.3267-4.0742c-1.9764-4.4301 2.4474-8.6575 6.5275-8.697 3.5315-0.0342 6.8264 1.4968 8.1267 12.187 1.3004 10.69-1.4431 20.922-1.8281 20.702z"/>
  <path d="m36 53c-0.63767-22.452-0.17861-32.398 2.9479-38.219 3.1265-5.8206 10.702-6.4082 16.849-1.697 3.2875 2.5199 7.0992 6.4012 6.4382 13.602-0.7673 8.3591-8.6047 9.5921-14.635 8.2577l2.222-2.1732s4.3473 0.36259 6.3267-4.0742c1.9764-4.4301-2.4474-8.6575-6.5275-8.697-3.5315-0.0342-6.8264 1.4968-8.1267 12.187s1.4431 20.922 1.8281 20.702z"/>
 </g>
 <g transform="translate(-2.2098 2.0442)" aria-label="ConvPhase" fill="#000">
  <path d="m104.01 40.853q0 0.25-0.32813 0.65625-2.875 3.4219-7.6406 3.4219-4.875 0-7.9062-3.3281-2.9531-3.2188-2.9531-8.125 0-4.75 2.8906-8.0625 3.0156-3.4688 7.6719-3.4688 5.0625 0 7.9375 3.1094 0.3125 0.34375 0.3125 0.60938 0 0.29688-1.0938 2.2031-1.0781 1.9062-1.3594 2.1406-0.125 0.125-0.3125 0.125-0.0781 0-0.78125-0.625-0.84375-0.75-1.6563-1.1719-1.2344-0.625-2.5625-0.625-2.2969 0-3.6719 1.7188-1.2656 1.5938-1.2656 3.9375 0 2.375 1.2656 3.9844 1.375 1.75 3.6719 1.75 1.3594 0 2.5781-0.59375 0.79688-0.39062 1.625-1.0938 0.6875-0.59375 0.76563-0.59375 0.15625 0 0.3125 0.17188 0.25 0.28125 1.3594 1.9531 1.1406 1.7344 1.1406 1.9062z"/>
  <path d="m120.62 36.697q0 3.5625-2.1875 5.7812-2.1719 2.2188-5.7188 2.2188-3.4375 0-5.6562-2.1875t-2.2188-5.625q0-3.625 2.125-5.875 2.125-2.2656 5.75-2.2656 3.5312 0 5.7188 2.2188 2.1875 2.2031 2.1875 5.7344zm-5.125 0q0-1.2344-0.76562-2.1719-0.76563-0.95312-1.9844-0.95312-1.2344 0-2.0312 0.96875-0.75 0.90625-0.75 2.1562 0 1.2656 0.75 2.1719 0.79688 0.96875 2.0312 0.96875 1.2188 0 2.0156-0.96875 0.73437-0.90625 0.73437-2.1719z"/>
  <path d="m138.04 43.931q0 0.42188-0.4375 0.48438t-2.2812 0.0625q-1.9688 0-2.4375-0.09375t-0.46875-0.64062q0-0.73438 0.0469-2.2188t0.0469-2.2344q0-0.57812-0.0312-1.7188-0.0312-1.1562-0.0312-1.7344 0-2.1406-1.8594-2.1406-0.60937 0-1.4219 0.53125-0.875 0.59375-0.875 1.1719v8.4375q0 0.51562-0.48438 0.57812-0.54687 0.0625-2.2344 0.0625-1.8281 0-2.375-0.09375-0.48438-0.07813-0.48438-0.51562 0-1.2188 0.0156-3.6719t0.0156-3.6875q0-3.8906-0.60937-6.1094-0.0312-0.14062-0.0312-0.23438 0-0.25 0.23437-0.34375 0.98438-0.10938 2.625-0.34375 2.4844-0.48438 2.7969-0.48438 0.17187 0 0.26562 1.0625 0.0937 1.0469 0.26563 1.0469-0.17188 0 1.6719-1.0781 1.8594-1.0938 3.25-1.0938 1.9844 0 3.3125 0.9375 1.4844 1.0781 1.4844 3v4.9844q0 1.0156 0.0156 3.0469 0.0156 2.0156 0.0156 3.0312z"/>
  <path d="m155.69 33.541q0 2.6719-0.17187 3.1562-0.35938 1.1094-2.1562 3.7656-1.5625 2.2812-2.6719 3.5625-0.40625 0.48438-2.4531 0.48438-1.7812 0-2.3125-0.125-0.32813-0.07813-0.54688-0.3125-0.9375-1.0156-2.6719-3.5312-1.8594-2.7031-2.2188-3.7031-0.39063-1.0781-0.39063-3.2344 0-0.60938 0.0156-1.8281 0.0156-1.2344 0.0156-1.8594 0-0.40625 0.54688-0.40625 0.79687 0 2.3906 0.04687 1.6094 0.04687 2.4062 0.04687 0.35938 0 0.35938 0.48438 0 0.4375-0.0625 1.3281-0.0625 0.875-0.0625 1.3281 0 1.625 0.0937 2.6562 0.0469 0.53125 0.90625 2 0.89062 1.5469 1.2969 1.5469 0.39063 0 1.25-1.5156 0.82813-1.4219 0.89063-1.9375 0.125-1.1094 0.125-2.6875 0-0.45312-0.0937-1.3594-0.0937-0.92188-0.0937-1.3594 0-0.48438 0.32812-0.48438 0.375 0 1.1094 0.01563 0.75 0.01563 1.125 0.01563t1.125-0.0625q0.76562-0.0625 1.1406-0.0625 0.39063 0 0.51563 0.40625 0.26562 0.89062 0.26562 3.625z"/>
  <path d="m176.64 30.822q0 3.7812-1.9844 6.125-2.125 2.4844-5.8594 2.4844-0.625 0-1.8906-0.0625-1.25-0.07813-1.875-0.07813-0.67187 0-0.67187 0.57812 0 0.71875 0.14062 2.1406 0.14063 1.4219 0.14063 2.125 0 0.35938-0.32813 0.35938-0.95312 0-2.8594-0.0625-1.9062-0.04687-2.8594-0.04687-0.45312 0-0.45312-0.45312 0-1.7344 0.0469-5.2031 0.0625-3.4844 0.0625-5.2188 0-4.9062-0.42187-10.312l-0.0156-0.21875q-0.0312-0.29688 0.46875-0.35938 1.2188-0.15625 5.375-0.15625 2.4531 0 4.7031 0.0625 3.7031 0.10938 5.9688 2.3281 2.3125 2.2812 2.3125 5.9688zm-6.2344 0.25q0-3.6406-3.5469-3.6406-2.5 0-2.625 0.28125-0.10938 0.20312-0.10938 3.6094 0 0.48438 0.0312 1.4375 0.0469 0.9375 0.0469 1.4219 0 0.3125 2.8125 0.3125 3.3906 0 3.3906-3.4219z"/>
  <path d="m194.26 33.056-0.0312 10.781q0 0.54688-0.4375 0.60938-0.5 0.0625-2.2812 0.0625-1.7188 0-2.3906-0.125-0.51562-0.09375-0.51562-0.67188 0-1.3438 0.0469-4.0469t0.0469-4.0469q0-1.8281-1.8594-1.8281-0.625 0-1.4688 0.5-0.92187 0.54688-0.92187 1.1406v3.8594q0 0.75 0.0312 2.2656 0.0312 1.5 0.0312 2.25 0 0.57812-0.48438 0.64062-0.48437 0.0625-2.7188 0.0625-1.2812 0-1.8438-0.125t-0.5625-0.54688q0-1.2344 0.0156-3.7031 0.0156-2.4844 0.0156-3.7188 0-5.1094-0.10937-8.4531-0.0469-1.1719-0.0781-2.3438-0.0781-1.3594-0.28125-2.3281-0.0469-0.20312-0.0469-0.29688 0-0.23438 0.23437-0.3125 0.48438-0.14062 1.4219-0.17188 1.25-0.04687 1.4531-0.07813 2.8281-0.32812 2.8281-0.32812 0.25 0 0.25 0.32812 0 0.5-0.0625 1.3594-0.0625 1-0.0625 1.3594-0.0937 3.5312-0.0937 5.5781 0 0.3125 0.15625 0.3125 0.0312 0 0.79687-0.54688 0.90625-0.64062 1.7344-1.0156 1.2344-0.54688 2.3906-0.54688 2 0 3.3438 1.0469 1.4531 1.125 1.4531 3.0781z"/>
  <path d="m212.51 36.572q0 1.2031 0.14062 3.5781 0.14063 2.375 0.14063 3.5625 0 0.625-0.54688 0.67188-1.9375 0.14062-4.4375 0.14062-0.29687 0-0.40625-0.89062-0.0937-0.90625-0.23437-0.92188-0.125 0.0625-0.32813 0.26562-1.75 1.7656-3.75 1.7656-3.0469 0-5.0469-2.4062-1.8906-2.25-1.8906-5.375 0-3.6094 1.9531-5.8125 2.0312-2.2812 5.5625-2.2812 2.4531 0 3.875 1.7188 0.0625 0.07813 0.10937 0.07813 0.14063 0 0.3125-0.75 0.1875-0.76562 0.4375-0.76562 0.57813 0 2.2031 0.32812 1.5469 0.3125 2.2188 0.53125 0.23437 0.09375 0.23437 0.25 0 0.0625-0.0469 0.32812-0.5 2.8281-0.5 5.9844zm-5.0312 0.09375q0-1.3281-0.84375-2.1875-0.82813-0.875-2.1719-0.875t-2.1719 0.85938q-0.82813 0.85938-0.82813 2.2031 0 1.2656 0.875 2.1719t2.125 0.90625q1.3281 0 2.1719-0.85938 0.84375-0.875 0.84375-2.2188z"/>
  <path d="m224.76 31.744q0 0.15625-0.23438 0.42188-0.4375-0.10938-0.875-0.10938-0.92187 0-1.5469 0.40625-0.75 0.46875-0.75 1.3281 0 0.54688 0.79687 1.3906 1.2031 1.2656 1.4844 1.7031 0.79687 1.1875 0.79687 2.5469 0 0.79688-0.3125 1.6875-0.35937 0.98438-0.90625 1.4375-1.1562 1-2.7031 1.6875-1.6719 0.71875-3.0781 0.71875-0.3125 0-1.4062-1.6875-1.0781-1.7031-1.0781-2.0781 0-0.14062 0.17187-0.17188 1.0938-0.20312 2.2031-0.40625 1.375-0.4375 1.375-1.4375 0-0.6875-0.79688-1.5938-1.4219-1.5781-1.4844-1.6719-0.79688-1.125-0.79688-2.375 0-2.3438 2.375-3.9844 2.125-1.4531 4.5469-1.4531 0.25 0 1.2344 1.6875 0.98438 1.6719 0.98438 1.9531z"/>
  <path d="m241.33 35.9q0 1.5781-1.0156 1.7969-0.17187 0.03125-3.2344 0.34375-1.8438 0.20312-5.5 0.48438 0.21875 1.0156 1.3281 1.5469 0.90625 0.4375 2.0625 0.4375 1.3906 0 2.7969-0.75 0.59375-0.375 1.1875-0.75 0.32812 0.15625 1.0938 1.5938 0.78125 1.4375 0.78125 1.8281 0 0.10938-0.23438 0.35938-1.9062 2.0469-5.9219 2.0469-3.7188 0-6-2.1719-2.3438-2.2031-2.3438-5.8906 0-3.5938 2.0938-5.8906 2.1562-2.375 5.7188-2.375 3 0 5.0938 2.1875t2.0938 5.2031zm-5.4688-0.95312q0-0.96875-0.6875-1.7031t-1.6406-0.73438q-0.98437 0-1.625 0.82812-0.59375 0.76562-0.59375 1.7969 0 0.42188 0.4375 0.42188 1.1562 0 3.5938-0.35938 0.51563-0.07813 0.51563-0.25z"/>
 </g>
</svg>
