<svg width="64" height="64" version="1.1" viewBox="0 0 64 64" xmlns="http://www.w3.org/2000/svg">
 <g fill="#f00">
  <path d="m10 54s16.622-4.0048 22.5-4c5.8057 0.0048 22.5 4 22.5 4l1 4h-47z" stroke-linecap="square" stroke-width="5.6693"/>
  <path d="m29 53c0.63767-22.452 0.17861-32.398-2.9479-38.219-3.1265-5.8206-10.702-6.4082-16.849-1.697-3.2875 2.5199-7.0992 6.4012-6.4382 13.602 0.7673 8.3591 8.6047 9.5921 14.635 8.2577l-2.222-2.1732s-4.3473 0.36259-6.3267-4.0742c-1.9764-4.4301 2.4474-8.6575 6.5275-8.697 3.5315-0.0342 6.8264 1.4968 8.1267 12.187 1.3004 10.69-1.4431 20.922-1.8281 20.702z"/>
  <path d="m36 53c-0.63767-22.452-0.17861-32.398 2.9479-38.219 3.1265-5.8206 10.702-6.4082 16.849-1.697 3.2875 2.5199 7.0992 6.4012 6.4382 13.602-0.7673 8.3591-8.6047 9.5921-14.635 8.2577l2.222-2.1732s4.3473 0.36259 6.3267-4.0742c1.9764-4.4301-2.4474-8.6575-6.5275-8.697-3.5315-0.0342-6.8264 1.4968-8.1267 12.187s1.4431 20.922 1.8281 20.702z"/>
 </g>
</svg>
