<svg width="128" height="128" version="1.1" viewBox="0 0 33.867 33.867" xmlns="http://www.w3.org/2000/svg">
 <g transform="translate(-.45467 -.24376)" stroke="#454241" stroke-linecap="round" stroke-linejoin="round">
  <ellipse transform="matrix(.99843 -.056039 .055972 .99843 0 0)" cx="16.399" cy="18.124" rx="11.574" ry="11.578" fill="#ee4e5f"/>
  <path d="m24.109 7.7527a14.408 14.413 2.5566 0 0-12.603 15.106 14.408 14.413 2.5566 0 0 1.1547 4.8779 11.574 11.578 2.5391 0 0 5.3754 1.0003 11.574 11.578 2.5391 0 0 10.908-12.209 11.574 11.578 2.5391 0 0-4.8346-8.7753z" fill="#f48f9a"/>
  <path d="m26.458 17.515a11.574 11.578 2.5392 0 0-0.43245 0.01573 11.574 11.578 2.5392 0 0-10.904 10.992 11.574 11.578 2.5391 0 0 2.9143 0.21487 11.574 11.578 2.5391 0 0 10.911-10.991 11.574 11.578 2.5392 0 0-2.0566-0.23112 11.574 11.578 2.5392 0 0-0.43245 0z" fill="#f9bec4"/>
 </g>
</svg>
