<svg width="256" height="64" version="1.1" viewBox="0 0 256 64" xmlns="http://www.w3.org/2000/svg">
 <g transform="translate(10,-2)" fill="#f00">
  <path d="m10 54s16.622-4.0048 22.5-4c5.8057 0.0048 22.5 4 22.5 4l1 4h-47z" stroke-linecap="square" stroke-width="5.6693"/>
  <path d="m29 53c0.63767-22.452 0.17861-32.398-2.9479-38.219-3.1265-5.8206-10.702-6.4082-16.849-1.697-3.2875 2.5199-7.0992 6.4012-6.4382 13.602 0.7673 8.3591 8.6047 9.5921 14.635 8.2577l-2.222-2.1732s-4.3473 0.36259-6.3267-4.0742c-1.9764-4.4301 2.4474-8.6575 6.5275-8.697 3.5315-0.0342 6.8264 1.4968 8.1267 12.187 1.3004 10.69-1.4431 20.922-1.8281 20.702z"/>
  <path d="m36 53c-0.63767-22.452-0.17861-32.398 2.9479-38.219 3.1265-5.8206 10.702-6.4082 16.849-1.697 3.2875 2.5199 7.0992 6.4012 6.4382 13.602-0.7673 8.3591-8.6047 9.5921-14.635 8.2577l2.222-2.1732s4.3473 0.36259 6.3267-4.0742c1.9764-4.4301-2.4474-8.6575-6.5275-8.697-3.5315-0.0342-6.8264 1.4968-8.1267 12.187s1.4431 20.922 1.8281 20.702z"/>
 </g>
 <g aria-label="Hapsolutely" fill="#000">
  <path d="m102.11 41.548q0 0.30762-0.13183 0.38086-0.0586 0.04394-0.41016 0.07324-0.89355 0.08789-2.5195 0.08789-2.2998 0-2.71-0.08789-0.39551-0.08789-0.39551-0.39551 0-1.1572 0.10254-3.4717 0.11719-2.3291 0.11719-3.4863 0-0.57129-0.32227-0.65918-0.49805-0.11719-3.5449-0.11719-3.0615 0-3.5742 0.11719-0.32226 0.07324-0.32226 0.65918 0 1.1426 0.07324 3.4277 0.07324 2.2705 0.07324 3.4131 0 0.43945-0.39551 0.5127-0.46875 0.08789-2.7539 0.08789-1.9775 0-2.5195-0.08789-0.4248-0.07324-0.4248-0.4541 0-1.582 0.14648-4.7754 0.16113-3.1934 0.16113-4.79 0-1.6992-0.14648-5.0977-0.14648-3.4131-0.14648-5.1123 0-0.32227 0.30762-0.32227 0.4541 0 1.3623 0.04395 0.92285 0.04395 1.377 0.04395 0.46875 0 1.4062-0.04395 0.95215-0.04395 1.4209-0.04395 0.24902 0 0.24902 0.26367 0 1.0986-0.16113 3.2959-0.16113 2.1826-0.16113 3.2812 0 0.5127 0.27832 0.60059 0.38086 0.11719 3.75 0.11719 3.1348 0 3.6328-0.11719 0.35156-0.08789 0.35156-0.60059 0-1.0547-0.10254-3.1787-0.10254-2.1387-0.10254-3.208 0-0.4541 0.36621-0.4541 0.4248 0 1.2891 0.04395 0.87891 0.04395 1.3184 0.04395 0.4248 0 1.2891-0.04395 0.87891-0.04395 1.3184-0.04395 0.42481 0 0.42481 0.35156 0 1.6846-0.14649 5.083-0.13183 3.3984-0.13183 5.0977 0 1.5967 0.14648 4.79 0.16113 3.1934 0.16113 4.7754z"/>
  <path d="m119.42 34.678q0 1.1279 0.13183 3.3545 0.13184 2.2266 0.13184 3.3398 0 0.58594-0.5127 0.62988-1.8164 0.13184-4.1602 0.13184-0.27832 0-0.38086-0.83496-0.0879-0.84961-0.21973-0.86426-0.11719 0.05859-0.30762 0.24902-1.6406 1.6553-3.5156 1.6553-2.8564 0-4.7314-2.2559-1.7725-2.1094-1.7725-5.0391 0-3.3838 1.8311-5.4492 1.9043-2.1387 5.2148-2.1387 2.2998 0 3.6328 1.6113 0.0586 0.07324 0.10254 0.07324 0.13184 0 0.29297-0.70312 0.17578-0.71777 0.41016-0.71777 0.54199 0 2.0654 0.30762 1.4502 0.29297 2.0801 0.49805 0.21972 0.08789 0.21972 0.23438 0 0.05859-0.0439 0.30762-0.46875 2.6514-0.46875 5.6104zm-4.7168 0.08789q0-1.2451-0.79102-2.0508-0.77636-0.82031-2.0361-0.82031-1.2598 0-2.0361 0.80566t-0.77637 2.0654q0 1.1865 0.82031 2.0361 0.82032 0.84961 1.9922 0.84961 1.2451 0 2.0361-0.80566 0.79102-0.82031 0.79102-2.0801z"/>
  <path d="m138.5 34.956q0 3.1348-1.8457 5.2002-1.9043 2.1387-4.9951 2.1387-1.1279 0-2.417-0.55664-1.2891-0.55664-1.1719-0.55664-0.19043 0-0.19043 0.43945 0 0.74707 0.0732 2.2412 0.0732 1.5088 0.0732 2.2559 0 0.46875-0.4834 0.46875l-2.9883 0.01465q-1.0107 0-1.3037-0.07324-0.43945-0.10254-0.43945-0.54199l0.0293-11.279q0-3.4131-0.51269-5.7568-0.0293-0.14648-0.0293-0.24902 0-0.21973 0.17578-0.29297 0.57129-0.21973 2.1826-0.46875 1.5674-0.24902 2.2705-0.24902 0.57129 0 0.64453 0.76172 0.0879 0.74707 0.20508 0.74707-0.14649 0 1.2451-0.79102 1.4062-0.80566 2.5488-0.80566 3.1787 0 5.083 2.0947 1.8457 2.0215 1.8457 5.2588zm-5.4346-0.0293q0-1.1719-0.71777-2.0508-0.77637-0.92285-1.919-0.92285-1.1719 0-1.875 0.92285-0.61523 0.83496-0.61523 2.0508 0 1.2451 0.64453 2.0654 0.68848 0.89356 1.9043 0.89356 2.5781 0 2.5781-2.959z"/>
  <path d="m148.97 30.151q0 0.14648-0.21973 0.39551-0.41016-0.10254-0.82031-0.10254-0.86426 0-1.4502 0.38086-0.70312 0.43945-0.70312 1.2451 0 0.5127 0.74707 1.3037 1.1279 1.1865 1.3916 1.5967 0.74707 1.1133 0.74707 2.3877 0 0.74707-0.29297 1.582-0.33691 0.92285-0.84961 1.3477-1.084 0.9375-2.5342 1.582-1.5674 0.67383-2.8857 0.67383-0.29297 0-1.3184-1.582-1.0107-1.5967-1.0107-1.9482 0-0.13184 0.16113-0.16113 1.0254-0.19043 2.0654-0.38086 1.2891-0.41016 1.2891-1.3477 0-0.64453-0.74707-1.4941-1.333-1.4795-1.3916-1.5674-0.74707-1.0547-0.74707-2.2266 0-2.1973 2.2266-3.7354 1.9922-1.3623 4.2627-1.3623 0.23437 0 1.1572 1.582 0.92286 1.5674 0.92286 1.8311z"/>
  <path d="m165.17 34.795q0 3.3398-2.0508 5.4199-2.0361 2.0801-5.3613 2.0801-3.2227 0-5.3027-2.0508-2.0801-2.0508-2.0801-5.2734 0-3.3984 1.9922-5.5078 1.9922-2.124 5.3906-2.124 3.3106 0 5.3613 2.0801 2.0508 2.0654 2.0508 5.376zm-4.8047 0q0-1.1572-0.71777-2.0361-0.71778-0.89356-1.8604-0.89356-1.1572 0-1.9043 0.9082-0.70313 0.84961-0.70313 2.0215 0 1.1865 0.70313 2.0361 0.74707 0.9082 1.9043 0.9082 1.1426 0 1.8896-0.9082 0.68848-0.84961 0.68848-2.0361z"/>
  <path d="m172.28 33.183q0 3.999 0.0293 6.1377 0 0.33691 0.0439 1.1572 0.0439 0.74707 0.0439 1.1572 0 0.30762-0.36621 0.36621-0.65918 0.11719-2.373 0.11719-1.7578 0-2.2412-0.11719-0.32227-0.07324-0.36621-0.39551 0-0.04394 0-0.62988 0-1.3037 0.0293-3.8965 0.0293-2.6074 0.0293-3.8965 0-6.1523 0.0147-5.6104-0.044-3.2373-0.36621-5.5811-0.0293-0.16113-0.0293-0.24902 0-0.32227 0.38086-0.32227h5.2295q0.36621 0 0.33692 0.30762l-0.0147 0.26367q-0.38086 6.3281-0.38086 11.191z"/>
  <path d="m190.03 28.686q0 1.084-0.10254 3.252t-0.10254 3.252q0 1.0547 0.0732 3.1641t0.0732 3.1494q0 0.39551-0.36621 0.49805-0.55664 0.14648-2.3584 0.14648-1.5967 0-2.2266-0.08789-0.27832-0.04395-0.35156-0.35156-0.0439-0.43945-0.0879-0.87891-0.0732-0.67383-0.20508-0.67383 0.20508 0-1.4795 0.99609-1.6846 0.99609-3.0615 0.99609-3.8818 0-4.5996-3.501-0.32226-1.626-0.32226-4.7168 0-3.3398 0.54199-5.2734 0.16113-0.60059 0.60059-0.60059 0.67382 0 2.0508 0.01465 1.377 0.01465 2.0508 0.01465 0.4541 0 0.4541 0.38086 0 0.10254-0.0293 0.30762-0.30761 1.9922-0.30761 4.043 0 2.5488 0.16113 3.4863 0.26367 1.6113 1.9189 1.6113 0.64454 0 1.3916-0.57129 0.76172-0.57129 0.79101-1.1865 0.0293-0.54199 0.0293-7.3535 0-0.4834 0.0732-0.57129 0.0879-0.14648 0.52734-0.14648 0.71778 0 2.1533 0.01465 1.4502 0.01465 2.168 0.01465 0.43946 0 0.5127 0.21973 0.0293 0.11719 0.0293 0.35156z"/>
  <path d="m202.25 37.71q0 0.43945-0.11718 1.333-0.10254 0.89356-0.10254 1.3184 0 0.41016-0.0879 0.52734-0.0879 0.11719-0.4834 0.33692-1.8896 1.04-4.1895 1.04-4.2334 0-4.2334-3.2373 0-0.9668 0.0732-2.9004 0.0732-1.9482 0.0732-2.915 0-0.64453-0.74707-0.64453-0.0586 0-0.19043 0-0.13184 0.01465-0.19043 0.01465-0.55664 0-0.55664-0.39551 0-0.23438 0.0293-0.71777 0.0439-0.4834 0.0439-0.71777 0-0.30762-0.0439-0.9375-0.0293-0.62988-0.0293-0.9375 0-0.29297 0.9375-0.32227 0.52734-0.01465 0.57129-0.29297 0.0879-0.55664 0.0586-1.7578-0.0586-1.8896-0.0586-1.8018 0-1.6992 0.32226-1.6992 0.39551 0 1.1279 0.17578 0.83497 0.19043 1.1572 0.21973 0.74707 0.10254 2.2559 0.27832 0.36621 0.0293 0.36621 0.24902 0 0.58594-0.10254 1.7725-0.0879 1.1865-0.0879 1.7871 0 0.71777 0.42481 0.71777 0.51269 0 1.5527-0.04395t1.5674-0.04395q0.32227 0 0.32227 0.21973 0 0.33691-0.0732 1.0107-0.0733 0.67383-0.0733 1.0107 0 0.35156 0.0147 1.0254 0.0146 0.67383 0.0146 1.0254 0 0.30762-0.4248 0.30762-0.29297 0-0.98145-0.01465-0.68848-0.0293-0.98144-0.0293h-1.0986q-0.21972 0-0.21972 0.64453 0 0.35156 0 1.04 0.0147 0.70312 0.0147 1.04 0 1.2305 0.27832 1.6992 0.3955 0.62988 1.5527 0.62988 0.36621 0 1.04-0.16113 0.68848-0.17578 0.9668-0.17578 0.30761 0 0.30761 0.32227z"/>
  <path d="m217.2 34.048q0 1.4795-0.95215 1.6846-0.16113 0.0293-3.0322 0.32227-1.7285 0.19043-5.1562 0.4541 0.20508 0.95215 1.2451 1.4502 0.84961 0.41016 1.9336 0.41016 1.3037 0 2.6221-0.70312 0.55664-0.35156 1.1133-0.70312 0.30761 0.14648 1.0254 1.4941 0.73242 1.3477 0.73242 1.7139 0 0.10254-0.21973 0.33691-1.7871 1.9189-5.5518 1.9189-3.4863 0-5.625-2.0361-2.1973-2.0654-2.1973-5.5225 0-3.3691 1.9629-5.5225 2.0215-2.2266 5.3613-2.2266 2.8125 0 4.7754 2.0508 1.9629 2.0508 1.9629 4.8779zm-5.127-0.89356q0-0.9082-0.64453-1.5967-0.64453-0.68848-1.5381-0.68848-0.92285 0-1.5234 0.77637-0.55664 0.71777-0.55664 1.6846 0 0.39551 0.41016 0.39551 1.084 0 3.3691-0.33692 0.48339-0.07324 0.48339-0.23438z"/>
  <path d="m224.15 33.183q0 3.999 0.0293 6.1377 0 0.33691 0.0439 1.1572 0.0439 0.74707 0.0439 1.1572 0 0.30762-0.36621 0.36621-0.65918 0.11719-2.373 0.11719-1.7578 0-2.2412-0.11719-0.32227-0.07324-0.36622-0.39551 0-0.04394 0-0.62988 0-1.3037 0.0293-3.8965 0.0293-2.6074 0.0293-3.8965 0-6.1523 0.0146-5.6104-0.0439-3.2373-0.36621-5.5811-0.0293-0.16113-0.0293-0.24902 0-0.32227 0.38086-0.32227h5.2295q0.36621 0 0.33691 0.30762l-0.0146 0.26367q-0.38086 6.3281-0.38086 11.191z"/>
  <path d="m241.21 31.557q0 2.8418-0.17578 3.457-0.21973 0.73242-3.208 5.3027-0.46875 0.71777-2.417 3.3252-2.1533 2.8711-2.4463 3.0322-0.35157 0.21973-4.4971 0.21973-0.62989 0-0.84961-0.14648-0.19043-0.60058-0.4834-1.4209-0.23438-0.5127-0.46875-1.04-0.33692-0.76172-0.33692-1.0107 0-0.27832 0.24903-0.27832 4.0723 0 4.0723-1.8604 0-0.16113-1.9922-2.915-2.0654-2.8271-2.2705-3.5742-0.11719-0.4248-0.11719-3.0322 0-0.52734 0.0293-1.582 0.0293-1.0693 0.0293-1.5967 0-0.38086 0.4834-0.38086 0.74707 0 2.2559 0.04395 1.5234 0.04395 2.2705 0.04395 0.30762 0 0.30762 0.4541 0 0.41016-0.0439 1.2451-0.0439 0.82031-0.0439 1.2305 0 1.8457 0.0586 2.5049 0.0439 0.5127 0.87891 1.9043 0.8789 1.4502 1.2744 1.4502 0.33691 0 1.1426-1.4355 0.74707-1.3623 0.80566-1.8311 0.14649-1.2891 0.14649-2.7979 0-0.39551-0.0733-1.2012-0.0732-0.80566-0.0732-1.2158 0-0.27832 0.30762-0.27832 0.74707 0 2.2266-0.05859 1.4941-0.05859 2.2412-0.05859 0.38086 0 0.5127 0.38086 0.20508 0.67383 0.20508 3.1201z"/>
 </g>
</svg>
