<?xml version="1.0" encoding="UTF-8"?>
<svg width="16" height="16" version="1.1" viewBox="0 0 16 16" xmlns="http://www.w3.org/2000/svg" xmlns:cc="http://creativecommons.org/ns#" xmlns:dc="http://purl.org/dc/elements/1.1/" xmlns:rdf="http://www.w3.org/1999/02/22-rdf-syntax-ns#">
 <metadata>
  <rdf:RDF>
   <cc:Work rdf:about="">
    <dc:format>image/svg+xml</dc:format>
    <dc:type rdf:resource="http://purl.org/dc/dcmitype/StillImage"/>
   </cc:Work>
  </rdf:RDF>
 </metadata>
 <g transform="matrix(.40385 0 0 .40385 1.5385 1.7115)" stroke-linecap="square" stroke-linejoin="round" stroke-width="2.8" fill="#000">
  <path d="m5 1.5996c-0.96667 6e-7 -1.7702 0.44017-2.3652 1.0352-0.59499 0.59499-1.0352 1.3986-1.0352 2.3652v22c0 0.96667 0.44017 1.7702 1.0352 2.3652 0.59499 0.59499 1.3986 1.0352 2.3652 1.0352h22c0.96667 0 1.7702-0.44017 2.3652-1.0352 0.59499-0.59499 1.0352-1.3986 1.0352-2.3652v-22c0-0.96667-0.44017-1.7702-1.0352-2.3652-0.59499-0.59499-1.3986-1.0352-2.3652-1.0352zm0 2.8008h22c0.03333 0 0.22976 0.059833 0.38477 0.21484 0.15501 0.15501 0.21484 0.35143 0.21484 0.38477v22c0 0.03333-0.05983 0.22976-0.21484 0.38477-0.15501 0.15501-0.35143 0.21484-0.38477 0.21484h-22c-0.033333 0-0.22975-0.05983-0.38477-0.21484-0.15501-0.15501-0.21484-0.35143-0.21484-0.38477v-22c0-0.033333 0.059833-0.22975 0.21484-0.38477 0.15501-0.15501 0.35143-0.21484 0.38477-0.21484z" style="-inkscape-stroke:none"/>
  <path d="m16 8.1426a1.4001 1.4001 0 0 0-1.1191 0.55859c-2.9712 3.9615-4.9712 6.1999-8 10.238a1.4001 1.4001 0 0 0 1.1191 2.2402h3.5996v1.8203c0 0.25-0.0053 0.45607 0.02539 0.73242 0.03069 0.27635 0.11743 0.74012 0.50977 1.1328 0.39233 0.39269 0.85606 0.48105 1.1328 0.51172 0.27676 0.03067 0.48416 0.02366 0.73438 0.02344l3.998-0.003909c0.25 0 0.45605 0.0053 0.73242-0.02539 0.27637-0.03071 0.74033-0.11729 1.1328-0.50977 0.39248-0.39248 0.47906-0.85644 0.50977-1.1328 0.03071-0.27637 0.02539-0.48242 0.02539-0.73242v-1.8184l3.5977 2e-3a1.4001 1.4001 0 0 0 1.1211-2.2402c-3.0288-4.0383-5.0288-6.2767-8-10.238a1.4001 1.4001 0 0 0-1.1191-0.55864zm0 3.6699c1.7825 2.3105 3.4352 4.4002 5.1289 6.5645l-2.127-2e-3a1.4001 1.4001 0 0 0-1.4023 1.4004v2.8203l-3.1992 0.0039v-2.8203a1.4001 1.4001 0 0 0-1.4004-1.4004h-2.1309c1.6944-2.1653 3.3478-4.2552 5.1309-6.5664z" style="-inkscape-stroke:none"/>
 </g>
</svg>
