<?xml version="1.0" encoding="UTF-8"?>
<!-- Created with Inkscape (http://www.inkscape.org/) -->
<svg width="16" height="16" version="1.1" viewBox="0 0 16 16" xmlns="http://www.w3.org/2000/svg">
 <path transform="scale(1.00042 .999579)" d="m8.21718 8.13073-0.167739 0.851119q-0.385178 1.9321-1.22387 2.85156-1.20523 1.31706-2.79565 1.31706-0.764144 0-1.2363-0.39139-0.465941-0.397604-0.465941-1.0375 0-0.844907 0.832482-1.46616 0.832482-0.627467 1.96317-0.627467l-0.0497 0.236077q-0.708231 0-1.23008 0.515641-0.521854 0.515642-0.521854 1.21766 0 0.472154 0.378966 0.801419t0.92567 0.329265q0.801419 0 1.27357-0.677168 0.329265-0.472154 0.670955-2.18682l0.347903-1.7333h-0.211227q-0.378965 0-0.807631 0.192589-0.012425-0.068338-0.012425-0.105613 0-0.416241 1.11826-0.540492l0.68338-3.44175-0.167739-0.0062125-0.422453-0.0062126q-1.11826 0-1.72088 0.60883-0.565342 0.571554-0.565342 1.19902 0 0.422453 0.304415 0.70823 0.304415 0.279565 0.757931 0.279565 0.111826 0 0.229864-0.037275l0.018638 0.217439q-0.310628 0.086976-0.58398 0.086976-0.689593 0-1.16796-0.372753-0.478367-0.372754-0.478367-0.90082 0-1.0375 1.31706-1.65875 1.31706-0.627468 3.49766-0.627468h1.75815q1.55935 0 2.22409-0.186376 0.664743-0.192589 0.851119-0.68338 0.124251 0.111826 0.124251 0.229864 0 0.205014-0.260927 0.63368-0.254714 0.428666-0.472153 0.590192-0.453517 0.335478-1.56556 0.335478-0.31684 0-0.60883-0.02485l-0.801418-0.0745508-0.832482-0.0745506q-0.0310627-0.0062126-0.173951-0.0186376l-0.60883 3.06279h0.34169l0.478366-0.012425 0.85112-0.02485q0.97537 0 1.29842-0.497004 0.118039 0.093188 0.118039 0.211227 0 0.130464-0.186377 0.422453-0.36654 0.590192-1.39161 0.590192-0.378965 0-1.16175-0.055913-0.279565-0.0186378-0.391391-0.0186378z" fill="#000" stroke-linejoin="round" stroke-width=".999995" aria-label="ℱ"/>
</svg>
