<?xml version="1.0" encoding="UTF-8"?>
<!-- Created with Inkscape (http://www.inkscape.org/) -->
<svg width="16" height="16" version="1.1" viewBox="0 0 16 16" xmlns="http://www.w3.org/2000/svg">
 <g transform="translate(8.207 4.4199)" fill="#000">
  <path d="m5.2363-1.9043-0.12891 0.3418c-0.093093 0.24494-0.29264 0.41695-0.6875 0.53125-0.3947 0.11032-1.1271 0.17578-2.1562 0.17578h-1.7578c-1.4783 0-2.6807 0.21119-3.6074 0.65234v-0.001953c-0.92696 0.43687-1.4609 1.0875-1.4609 1.8848 0 0.42745 0.21197 0.8141 0.57617 1.0977 0.36499 0.28417 0.81734 0.42578 1.3223 0.42578 0.2088 0 0.4249-0.032618 0.65039-0.095703l0.19922-0.056641-0.0625-0.73438-0.29688 0.09375c-0.057121 0.018023-0.10942 0.025391-0.15625 0.025391-0.25014 0-0.42892-0.067632-0.58594-0.21094l-0.00195-0.00195c-0.15668-0.14779-0.22461-0.30301-0.22461-0.52344 0-0.34299 0.14927-0.67507 0.49414-1.0234 0.3475-0.35079 0.84248-0.5332 1.543-0.5332l-0.00391-0.001953 0.29102 0.005859-0.59375 2.9941c-0.28136 0.042384-0.54979 0.08664-0.73438 0.17578-0.23172 0.1119-0.41992 0.31764-0.41992 0.56836 0 0.05264 0.00591 0.096975 0.015625 0.15039l0.058594 0.31445 0.29102-0.13086c0.2247-0.10087 0.42036-0.13551 0.60742-0.14844l-0.28516 1.4102c-0.22574 1.1318-0.46932 1.8603-0.63086 2.0918-0.27691 0.39682-0.60421 0.57031-1.0684 0.57031-0.31447 0-0.55391-0.087175-0.76172-0.26758-0.20808-0.18064-0.29297-0.36363-0.29297-0.61133 0-0.40582 0.13958-0.73725 0.44727-1.041 0.30781-0.30389 0.64296-0.44336 1.0547-0.44336h0.20312l0.1543-0.73438h-0.30859c-0.80031 0-1.5146 0.22688-2.1133 0.67773-0.59775 0.44629-0.93359 1.0194-0.93359 1.6641 0 0.48715 0.19354 0.9206 0.55469 1.2285h0.00195v0.00195c0.36593 0.30308 0.84419 0.44727 1.3965 0.44727 1.1297 0 2.1416-0.47842 2.9824-1.3965 0.6053-0.66303 1.0229-1.6565 1.2852-2.9707l0.12695-0.64453c0.070217 0.00261 0.12651 0.00545 0.25 0.013672 0.52493 0.037463 0.91465 0.056641 1.1797 0.056641 0.73053 0 1.3035-0.22645 1.6035-0.70703l0.00195-0.00195c0.13249-0.20737 0.22266-0.34948 0.22266-0.55469 0-0.16206-0.093866-0.31236-0.21289-0.40625l-0.21484-0.16992-0.14844 0.22852c-0.15274 0.23479-0.48175 0.38477-1.0898 0.38477h-0.00391l-0.85547 0.023438-0.47461 0.013672h-0.035156l0.50586-2.5391 0.78516 0.068359 0.80078 0.074219 0.00195 0.001953c0.20235 0.017206 0.41301 0.025391 0.63086 0.025391 0.76679 0 1.3319-0.10315 1.7129-0.38477h0.00195c0.1925-0.14287 0.35831-0.3634 0.53712-0.66406v0.003906c0.18324-0.30078 0.29688-0.5209 0.29688-0.76367 0-0.16645-0.091643-0.31225-0.20703-0.41602z" style="-inkscape-stroke:none"/>
 </g>
</svg>
