<?xml version="1.0" encoding="UTF-8"?>
<!-- Created with Inkscape (http://www.inkscape.org/) -->
<svg width="16" height="16" version="1.1" viewBox="0 0 16 16" xmlns="http://www.w3.org/2000/svg">
 <circle cx="8" cy="8" r="3" fill="none" stroke="#000" stroke-linecap="square" stroke-width="1.5"/>
 <path d="m10.433 2.2412c0.74774 0.31627 1.4211 0.77391 1.9866 1.3394 0.56551 0.56551 1.0232 1.2389 1.3394 1.9866m0 4.8656c-0.31627 0.74774-0.77391 1.4211-1.3394 1.9866s-1.2389 1.0232-1.9866 1.3394m-4.8656 0c-0.74774-0.31627-1.4211-0.77391-1.9866-1.3394-0.56551-0.56551-1.0232-1.2389-1.3394-1.9866m-2e-7 -4.8656c0.31627-0.74774 0.77391-1.4211 1.3394-1.9866 0.56551-0.56551 1.2389-1.0232 1.9866-1.3394" fill="none" stroke="#000" stroke-linecap="square" stroke-width="1.5"/>
</svg>
