<?xml version="1.0" encoding="UTF-8"?>
<!-- Created with Inkscape (http://www.inkscape.org/) -->
<svg width="16" height="16" version="1.1" viewBox="0 0 16 16" xmlns="http://www.w3.org/2000/svg">
 <g transform="matrix(3.7795 0 0 3.7795 -201.56 -910.64)" fill="none" stroke="#000" stroke-linecap="round" stroke-linejoin="round" stroke-width=".39688">
  <path d="m56.759 243.83c0.01466-0.0762 0.02246-0.15353 0.02329-0.2311 1.1e-5 -0.72732-0.59876-1.3169-1.3374-1.3169-0.73862-1e-5 -1.3374 0.58961-1.3374 1.3169 8.35e-4 0.0776 0.0086 0.1549 0.02329 0.2311"/>
  <path d="m55.714 243.83c0.02282-0.075 0.03445-0.15282 0.03451-0.2311-1.64e-4 -0.44587-0.36732-0.80722-0.82012-0.80715-0.4528-7e-5 -0.81996 0.36128-0.82012 0.80715 6.9e-5 0.0783 0.0117 0.15612 0.03451 0.2311"/>
 </g>
</svg>
