<svg width="128" height="128" version="1.1" viewBox="0 0 33.867 33.867" xmlns="http://www.w3.org/2000/svg" xmlns:xlink="http://www.w3.org/1999/xlink">
 <g transform="matrix(1.352 0 0 1.5981 -15.305 -115.32)">
  <path id="path4738" d="m15.056 74.732c-0.16965 1.9495-0.24279 3.8548 0 6.2996 0.07935 0.79903 10.996 0.57771 17.597-2.2134 0.33666-0.14234 0.0034-0.39216-0.47946-0.48433-3.3369-0.63701-5.7485-1.0985-8.3789-2.0205-0.28441-0.09969-0.51916-0.19559-0.33702 0.2479 0.65411 1.104 1.9009 2.4948 0.79591 2.5016-3.1273 0.01937-6.5898-0.678-8.8207-4.178-0.1752-0.27487-0.35638-0.39025-0.37704-0.15282z" fill="#ee4e5f" stroke="#454241" stroke-width=".6803"/>
  <use transform="matrix(1 0 0 -1 4.4741e-8 165.51)" width="100%" height="100%" stroke="#454241" stroke-width=".6803" xlink:href="#path4738"/>
 </g>
</svg>
